# xmcd
#
# Track frame offsets: 
#        150
#        31524
#        53285
#        77041
#        118919
#        149160
#        175316
#        215445
#        237022
#        267550
#
# Disc length: 4015 seconds
#
# Revision: 0
# Processed by: cddbd v1.5.2PL0 Copyright (c) Steve Scherf et al.
# Submitted via: ExactAudioCopy v0.99pb4
#
DISCID=880fad0a
DTITLE=Cujorius One - Creating a Second Sun
DYEAR=2006
DGENRE=Psychedelic
TTITLE0=Bloodstains in My Smoke
TTITLE1=Epo Orc
TTITLE2=Silva Soul
TTITLE3=95.5 Radio Joint
TTITLE4=The Pay Per View Sound
TTITLE5=My Voices Don't Like You
TTITLE6=Dear Daddy Drugs
TTITLE7=Bruise Vein
TTITLE8=Bass Bitch
TTITLE9=Pita Pan
EXTD=
EXTT0=
EXTT1=
EXTT2=
EXTT3=
EXTT4=
EXTT5=
EXTT6=
EXTT7=
EXTT8=
EXTT9=
PLAYORDER=
